<svg xmlns="http://www.w3.org/2000/svg"  viewBox="0 0 32 32" width="32px" height="32px" baseProfile="basic"><linearGradient id="Ub349SazE1hDrCHIJWdu3a" x1="16" x2="16" y1="10.987" y2="14.001" gradientUnits="userSpaceOnUse"><stop offset="0" stop-color="#e03c22"/><stop offset="1" stop-color="#c22e17"/></linearGradient><rect width="24" height="3" x="4" y="11" fill="url(#Ub349SazE1hDrCHIJWdu3a)"/><linearGradient id="Ub349SazE1hDrCHIJWdu3b" x1="16" x2="16" y1="11" y2="14" gradientUnits="userSpaceOnUse"><stop offset="0" stop-opacity=".02"/><stop offset="1" stop-opacity=".15"/></linearGradient><path fill="url(#Ub349SazE1hDrCHIJWdu3b)" d="M27.75,11.25v2.5H4.25v-2.5H27.75 M28,11 H4v3h24V11L28,11z"/><polygon fill="#ffcb52" points="27,27 5,27 5,12 15.874,4 27,12"/><linearGradient id="Ub349SazE1hDrCHIJWdu3c" x1="16" x2="16" y1="4" y2="27" gradientUnits="userSpaceOnUse"><stop offset="0" stop-opacity=".02"/><stop offset="1" stop-opacity=".15"/></linearGradient><path fill="url(#Ub349SazE1hDrCHIJWdu3c)" d="M15.876,4.309l10.874,7.819V26.75H5.25 V12.126L15.876,4.309 M15.874,4L5,12v15h22V12L15.874,4L15.874,4z"/><polygon points="5,11.63 5,13.923 16,6.144 27,13.923 27,11.63 15.874,3.63" opacity=".09"/><polygon points="5,11.305 5,13.598 16,5.82 27,13.598 27,11.305 15.874,3.305" opacity=".09"/><linearGradient id="Ub349SazE1hDrCHIJWdu3d" x1="16" x2="16" y1="15.952" y2="27.005" gradientUnits="userSpaceOnUse"><stop offset="0" stop-color="#d65e23"/><stop offset=".998" stop-color="#bf4d14"/></linearGradient><rect width="8" height="11" x="12" y="16" fill="url(#Ub349SazE1hDrCHIJWdu3d)"/><linearGradient id="Ub349SazE1hDrCHIJWdu3e" x1="16" x2="16" y1="16" y2="27" gradientUnits="userSpaceOnUse"><stop offset="0" stop-opacity=".02"/><stop offset="1" stop-opacity=".15"/></linearGradient><path fill="url(#Ub349SazE1hDrCHIJWdu3e)" d="M19.75,16.25v10.5h-7.5v-10.5H19.75 M20,16	h-8v11h8V16L20,16z"/><circle cx="18.5" cy="22.5" r=".5" fill="#ffaa42"/><linearGradient id="Ub349SazE1hDrCHIJWdu3f" x1="16" x2="16" y1="2.691" y2="14.005" gradientUnits="userSpaceOnUse"><stop offset="0" stop-color="#ff624a"/><stop offset=".247" stop-color="#ff5940"/><stop offset=".672" stop-color="#fd4224"/><stop offset="1" stop-color="#fc2c0a"/></linearGradient><path fill="url(#Ub349SazE1hDrCHIJWdu3f)" d="M16,5.515L28,14v-3L16.577,2.923	c-0.346-0.245-0.809-0.245-1.155,0L4,11v3L16,5.515z"/><linearGradient id="Ub349SazE1hDrCHIJWdu3g" x1="16" x2="16" y1="2.739" y2="14" gradientUnits="userSpaceOnUse"><stop offset="0" stop-opacity=".02"/><stop offset="1" stop-opacity=".15"/></linearGradient><path fill="url(#Ub349SazE1hDrCHIJWdu3g)" d="M16,2.989c0.156,0,0.306,0.048,0.433,0.138	l11.317,8.002v2.388L16.144,5.311L16,5.209l-0.144,0.102L4.25,13.517v-2.388l11.317-8.002C15.694,3.037,15.844,2.989,16,2.989 M16,2.739c-0.202,0-0.404,0.061-0.577,0.184L4,11v3l12-8.485L28,14v-3L16.577,2.923C16.404,2.801,16.202,2.739,16,2.739L16,2.739z"/></svg>